<?xml version="1.0" encoding="utf-8"?>
<!-- Generator: Adobe Illustrator 27.7.0, SVG Export Plug-In . SVG Version: 6.00 Build 0)  -->
<svg version="1.1" id="Layer_1" xmlns="http://www.w3.org/2000/svg" xmlns:xlink="http://www.w3.org/1999/xlink" x="0px" y="0px"
	 viewBox="0 0 52 52" style="enable-background:new 0 0 52 52;" xml:space="preserve">
<style type="text/css">
	.st0{opacity:0.8;fill:#FFFFFF;enable-background:new    ;}
	.st1{fill:#6F6F6F;}
	.st2{fill-rule:evenodd;clip-rule:evenodd;fill:#6F6F6F;}
</style>
<g id="_360_slide_ON_normal" transform="translate(-86 -80)">
	<circle id="Ellipse_9" class="st0" cx="112" cy="106" r="26"/>
	<g id="Group_49" transform="translate(96 92)">
		<path id="Path_44" class="st1" d="M31.1,7.9c-1-0.5-2-1-3-1.3C23.7-0.1,14.9-2,8.2,2.3C6.5,3.4,5.1,4.8,4,6.6
			c-1.1,0.4-2.1,0.8-3,1.3c-0.7,2.1-1,4.2-0.9,6.4c0,3.2,0.4,5.5,0.9,6.4c1,0.5,2,1,3,1.3c4.3,6.7,13.2,8.6,19.8,4.3
			c1.7-1.1,3.1-2.5,4.2-4.2c1.1-0.4,2.1-0.8,3-1.3c0.7-2.1,1-4.2,0.9-6.4C32.1,12.1,31.8,10,31.1,7.9z M16,1.6
			c3.6,0,7.1,1.5,9.5,4.2c-3.1-0.7-6.3-1.1-9.5-1.1c-3.2,0-6.4,0.3-9.5,1.1C8.9,3.1,12.4,1.6,16,1.6z M16,27.1
			c-3.6,0-7.1-1.5-9.5-4.2c3.1,0.7,6.3,1.1,9.5,1.1c3.2,0,6.4-0.3,9.5-1.1C23.1,25.5,19.6,27.1,16,27.1z M29.8,19.6
			c-0.2,0.1-0.4,0.2-0.6,0.3c-0.7,0.3-1.4,0.6-2.2,0.8c-3.6,1.1-7.3,1.6-11,1.5c-3.7,0-7.4-0.5-11-1.5c-0.8-0.3-1.5-0.5-2.2-0.8
			c-0.2-0.1-0.4-0.2-0.6-0.3c-0.5-1.7-0.7-3.5-0.6-5.3c-0.1-1.8,0.1-3.6,0.6-5.3C2.4,9,2.6,8.9,2.8,8.8C3.5,8.4,4.3,8.1,5,7.9
			c3.6-1.1,7.3-1.6,11-1.5c3.7,0,7.4,0.5,11,1.5c0.8,0.3,1.5,0.5,2.2,0.8c0.2,0.1,0.4,0.2,0.6,0.3c0.5,1.7,0.7,3.5,0.6,5.3
			C30.5,16.1,30.3,17.9,29.8,19.6z"/>
		<path id="Path_45" class="st2" d="M16,9.3c-5.1,0-8.9,1.8-8.9,4.2c0,1.4,1.2,2.6,3.5,3.4c0.4,0.1,0.8-0.1,1-0.5
			c0.1-0.4-0.1-0.8-0.5-1c-1.5-0.5-2.5-1.3-2.5-2c0-1.2,2.8-2.7,7.3-2.7s7.4,1.6,7.4,2.8c0,0.8-1.4,1.8-3.7,2.3l1.2-1
			c0.3-0.3,0.4-0.7,0.1-1.1s-0.7-0.4-1.1-0.1c0,0,0,0,0,0l-3.2,2.8c-0.2,0.2-0.3,0.5-0.3,0.7c0,0.3,0.2,0.5,0.5,0.6l3.9,1.5
			c0.1,0,0.2,0,0.3,0c0.3,0,0.6-0.2,0.7-0.5c0.2-0.4,0-0.8-0.4-1c0,0,0,0,0,0L20,17.4c3-0.7,4.9-2.1,4.9-3.8
			C24.9,11.1,21.1,9.3,16,9.3"/>
	</g>
</g>
</svg>
