<?xml version="1.0" encoding="utf-8"?>
<!-- Generator: Adobe Illustrator 27.7.0, SVG Export Plug-In . SVG Version: 6.00 Build 0)  -->
<svg version="1.1" id="Layer_1" xmlns="http://www.w3.org/2000/svg" xmlns:xlink="http://www.w3.org/1999/xlink" x="0px" y="0px"
	 viewBox="0 0 60 60" style="enable-background:new 0 0 60 60;" xml:space="preserve">
<style type="text/css">
	.st0{fill:none;}
	.st1{fill:#FFFFFF;}
</style>
<g transform="translate(-11 -11)">
	<rect class="st0" width="82" height="82"/>
</g>
<path id="_inner-path_" class="st0" d="M22.5,40.5c-0.8,0-1.5-0.7-1.5-1.5V21c0-0.8,0.7-1.5,1.5-1.5c0.2,0,0.5,0.1,0.7,0.2l18,9
	c0.7,0.4,1,1.3,0.7,2c-0.1,0.3-0.4,0.5-0.7,0.7l-18,9C23,40.4,22.7,40.5,22.5,40.5z"/>
<path d="M30,9C18.4,9,9,18.4,9,30s9.4,21,21,21s21-9.4,21-21S41.6,9,30,9z"/>
<rect id="_Transparent_Rectangle_" x="6" y="6" class="st0" width="48" height="48"/>
<path class="st1" d="M41.2,31.3l-18,9c-0.7,0.4-1.6,0.1-2-0.7C21.1,39.5,21,39.2,21,39V21c0-0.8,0.7-1.5,1.5-1.5
	c0.2,0,0.5,0.1,0.7,0.2l18,9c0.7,0.4,1,1.3,0.7,2C41.7,31,41.5,31.2,41.2,31.3z"/>
</svg>
